<svg xmlns="http://www.w3.org/2000/svg" viewBox="0 0 436.3 233.33"><defs><style>.cls-1{fill:#000;fill-rule:evenodd;}</style></defs><g id="Capa_2" data-name="Capa 2"><g id="Capa_1-2" data-name="Capa 1"><path class="cls-1" d="M124.86,130.17a71,71,0,0,1,8.85-34.43A71.26,71.26,0,0,0,71.29,58.88h0V201.45A71.28,71.28,0,0,1,0,130.17H0V233.33H71.29V201.45a71.25,71.25,0,0,0,62.42-36.85A71,71,0,0,1,124.86,130.17Z"/><path class="cls-1" d="M71.27,58.88H0v71.26A71.29,71.29,0,0,1,71.27,58.88Z"/><path class="cls-1" d="M253.38,27V87.68a71.28,71.28,0,0,0-119.66,8.06,71.4,71.4,0,0,1,0,68.86,71.29,71.29,0,0,0,119.66,8.06v28.79h71.28V27ZM196.14,162.19a32,32,0,1,1,32-32A32,32,0,0,1,196.14,162.19Zm57.24,10.47v-85a71.29,71.29,0,0,1,0,85Z"/><path class="cls-1" d="M404.28,26.86a32,32,0,0,0-32,32h32v32a32,32,0,0,1-32-32H333V201.45h71.29V90.9a32,32,0,1,0,0-64Z"/><polygon class="cls-1" points="0.17 29.93 0.17 1.13 2.79 1.13 2.79 27.48 12.65 27.48 12.65 29.93 0.17 29.93"/><polygon class="cls-1" points="9.53 11.09 13.35 0.48 16.29 1.77 11.14 11.72 9.53 11.09"/><polygon class="cls-1" points="22.3 29.93 22.3 1.13 36.56 1.13 36.56 3.59 24.92 3.59 24.92 12.61 36.56 12.61 36.56 15.07 24.92 15.07 24.92 27.48 36.56 27.48 36.56 29.93 22.3 29.93"/><path class="cls-1" d="M40.76,25.09,43,23.89a6.13,6.13,0,0,0,2.17,3.3,6,6,0,0,0,3.71,1.17,5.56,5.56,0,0,0,4.26-1.61,6.19,6.19,0,0,0,1.54-4.47,5.63,5.63,0,0,0-1-3.47,14.29,14.29,0,0,0-4.43-3.19c-2.91-1.53-4.83-2.87-5.79-4A6.37,6.37,0,0,1,42,7.37a6.48,6.48,0,0,1,2.08-5A7.59,7.59,0,0,1,49.46.44a7.39,7.39,0,0,1,3.77.92,6.89,6.89,0,0,1,2.6,2.74l-2,1.22A4.4,4.4,0,0,0,52,3.43a5.38,5.38,0,0,0-2.73-.65A4.59,4.59,0,0,0,45.93,4a4.54,4.54,0,0,0-1.26,3.38c0,2,1.66,3.9,5,5.64l1.37.73A14.43,14.43,0,0,1,56,17.61a8.12,8.12,0,0,1,1.24,4.67,8.32,8.32,0,0,1-2.26,6.15,8.35,8.35,0,0,1-6.17,2.27,8.29,8.29,0,0,1-4.84-1.4A9.2,9.2,0,0,1,40.76,25.09Z"/><path class="cls-1" d="M86.17,6.41a15.39,15.39,0,0,0-4.39-2.74,12.69,12.69,0,0,0-4.72-.89A12.2,12.2,0,0,0,68,6.32a12.61,12.61,0,0,0-3.49,9.23,14.62,14.62,0,0,0,.86,5.14,11.57,11.57,0,0,0,2.6,4,12,12,0,0,0,4,2.64,12.64,12.64,0,0,0,4.79.9,14.27,14.27,0,0,0,4.83-.84A16.27,16.27,0,0,0,86,24.94V28a18.82,18.82,0,0,1-4.5,2,16.32,16.32,0,0,1-10.67-.42,14.44,14.44,0,0,1-4.9-3.15,14,14,0,0,1-3.19-4.84,16.42,16.42,0,0,1-1.08-6,15.87,15.87,0,0,1,1.12-6A13.63,13.63,0,0,1,66,4.71,14.46,14.46,0,0,1,70.87,1.6,16.37,16.37,0,0,1,76.82.48a16.74,16.74,0,0,1,5.11.76,13.76,13.76,0,0,1,4.28,2.27Z"/><path class="cls-1" d="M105.86,28.36a12.45,12.45,0,0,0,9-3.7,12.79,12.79,0,0,0,3.7-9.07,12.68,12.68,0,0,0-3.7-9.07,12,12,0,0,0-4.08-2.75,12.62,12.62,0,0,0-4.87-1,12.41,12.41,0,0,0-4.82,1A12.66,12.66,0,0,0,97,6.52a12.94,12.94,0,0,0-2.75,4.16,13.16,13.16,0,0,0,0,9.82A12.52,12.52,0,0,0,97,24.66a12.25,12.25,0,0,0,4,2.77,12.6,12.6,0,0,0,4.86.93Zm15.43-12.77a14.83,14.83,0,0,1-1.16,5.8,15.06,15.06,0,0,1-3.34,4.88A15.77,15.77,0,0,1,100,29.57a15.56,15.56,0,0,1-8.35-8.2,14.83,14.83,0,0,1-1.15-5.78,15,15,0,0,1,1.15-5.83A15.23,15.23,0,0,1,95,4.83a14.69,14.69,0,0,1,4.94-3.25,16,16,0,0,1,5.94-1.1,15.82,15.82,0,0,1,6,1.12,14.92,14.92,0,0,1,5,3.23,15.19,15.19,0,0,1,3.35,4.93A14.86,14.86,0,0,1,121.29,15.59Z"/><polygon class="cls-1" points="127.09 29.93 127.09 1.13 129.71 1.13 129.71 27.48 139.58 27.48 139.58 29.93 127.09 29.93"/><path class="cls-1" d="M147.16,17.93h10L152.27,5.41l-5.11,12.52Zm-7.37,12L152.45,0l12.12,29.93h-2.85L158,20.19H146.27l-3.81,9.74Z"/><path class="cls-1" d="M182,27.68h3.68a27.1,27.1,0,0,0,6.33-.51,7.46,7.46,0,0,0,3.17-1.69,10.78,10.78,0,0,0,2.73-4.21,16.55,16.55,0,0,0,.93-5.75,16.76,16.76,0,0,0-.93-5.82,10.08,10.08,0,0,0-2.77-4.13,7.94,7.94,0,0,0-3.37-1.76,31.9,31.9,0,0,0-6.94-.51H182V27.68Zm-2.62,2.25V1.13h4.48a41.76,41.76,0,0,1,8.52.59,10.67,10.67,0,0,1,4.32,2,12.15,12.15,0,0,1,3.66,4.91,17.71,17.71,0,0,1,1.26,6.89,17.8,17.8,0,0,1-1.26,6.9,11.51,11.51,0,0,1-3.62,4.82,11.25,11.25,0,0,1-4.26,2.05,34.55,34.55,0,0,1-7.73.61h-5.37Z"/><polygon class="cls-1" points="207.48 29.93 207.48 1.13 221.74 1.13 221.74 3.59 210.1 3.59 210.1 12.61 221.74 12.61 221.74 15.07 210.1 15.07 210.1 27.48 221.74 27.48 221.74 29.93 207.48 29.93"/><polygon class="cls-1" points="228.16 29.93 228.16 1.13 230.78 1.13 230.78 27.48 240.65 27.48 240.65 29.93 228.16 29.93"/></g></g></svg>